<svg width="34" height="31" viewBox="0 0 34 31" fill="none" xmlns="http://www.w3.org/2000/svg">
<path d="M7.0026 30.5C5.16927 30.5 3.59983 29.8472 2.29427 28.5417C0.988715 27.2361 0.335938 25.6667 0.335938 23.8333C0.335938 22 0.988715 20.4306 2.29427 19.125C3.59983 17.8194 5.16927 17.1667 7.0026 17.1667C7.61372 17.1667 8.19705 17.2431 8.7526 17.3958C9.30816 17.5486 9.82205 17.7639 10.2943 18.0417L14.6693 13.625L10.1276 9C9.6276 8.5 9.25955 7.95139 9.02344 7.35417C8.78733 6.75694 8.66927 6.15278 8.66927 5.54167C8.66927 4.23611 9.1276 3.06944 10.0443 2.04167C10.9609 1.01389 12.1693 0.5 13.6693 0.5H20.3359C21.8359 0.5 23.0443 1.01389 23.9609 2.04167C24.8776 3.06944 25.3359 4.23611 25.3359 5.54167C25.3359 6.15278 25.2179 6.76389 24.9818 7.375C24.7457 7.98611 24.3776 8.54167 23.8776 9.04167L19.3359 13.625L23.6693 18.0417C24.1415 17.7361 24.6623 17.5139 25.2318 17.375C25.8012 17.2361 26.3915 17.1667 27.0026 17.1667C28.8359 17.1667 30.4054 17.8194 31.7109 19.125C33.0165 20.4306 33.6693 22 33.6693 23.8333C33.6693 25.6667 33.0165 27.2361 31.7109 28.5417C30.4054 29.8472 28.8359 30.5 27.0026 30.5C25.1693 30.5 23.5998 29.8472 22.2943 28.5417C20.9887 27.2361 20.3359 25.6667 20.3359 23.8333C20.3359 23.2222 20.4193 22.625 20.5859 22.0417C20.7526 21.4583 20.9887 20.9028 21.2943 20.375L17.0026 16L12.7109 20.375C13.0165 20.9028 13.2526 21.4583 13.4193 22.0417C13.5859 22.625 13.6693 23.2222 13.6693 23.8333C13.6693 25.6667 13.0165 27.2361 11.7109 28.5417C10.4054 29.8472 8.83594 30.5 7.0026 30.5ZM7.0026 27.1667C7.91927 27.1667 8.70399 26.8403 9.35677 26.1875C10.0095 25.5347 10.3359 24.75 10.3359 23.8333C10.3359 22.9167 10.0095 22.1319 9.35677 21.4792C8.70399 20.8264 7.91927 20.5 7.0026 20.5C6.08594 20.5 5.30122 20.8264 4.64844 21.4792C3.99566 22.1319 3.66927 22.9167 3.66927 23.8333C3.66927 24.75 3.99566 25.5347 4.64844 26.1875C5.30122 26.8403 6.08594 27.1667 7.0026 27.1667ZM27.0026 27.1667C27.9193 27.1667 28.704 26.8403 29.3568 26.1875C30.0095 25.5347 30.3359 24.75 30.3359 23.8333C30.3359 22.9167 30.0095 22.1319 29.3568 21.4792C28.704 20.8264 27.9193 20.5 27.0026 20.5C26.0859 20.5 25.3012 20.8264 24.6484 21.4792C23.9957 22.1319 23.6693 22.9167 23.6693 23.8333C23.6693 24.75 23.9957 25.5347 24.6484 26.1875C25.3012 26.8403 26.0859 27.1667 27.0026 27.1667ZM13.6693 3.83333C13.1693 3.83333 12.7665 4 12.4609 4.33333C12.1554 4.66667 12.0026 5.05556 12.0026 5.5C12.0026 5.72222 12.0443 5.93056 12.1276 6.125C12.2109 6.31944 12.3359 6.5 12.5026 6.66667L17.0026 11.25L21.5026 6.70833C21.6693 6.54167 21.7943 6.35417 21.8776 6.14583C21.9609 5.9375 22.0026 5.72222 22.0026 5.5C22.0026 5.05556 21.8498 4.66667 21.5443 4.33333C21.2387 4 20.8359 3.83333 20.3359 3.83333H13.6693Z" fill="#A7A0F8"/>
</svg>
