<svg width="28" height="37" viewBox="0 0 28 37" fill="none" xmlns="http://www.w3.org/2000/svg">
<path d="M2.4974 25.2501C1.88628 24.1945 1.42795 23.1112 1.1224 22.0001C0.81684 20.889 0.664062 19.7501 0.664062 18.5834C0.664062 14.8612 1.95573 11.6945 4.53906 9.08341C7.1224 6.4723 10.2752 5.16675 13.9974 5.16675H14.2891L11.6224 2.50008L13.9557 0.166748L20.6224 6.83342L13.9557 13.5001L11.6224 11.1667L14.2891 8.50008H13.9974C11.2196 8.50008 8.85851 9.47925 6.91406 11.4376C4.96962 13.3959 3.9974 15.7779 3.9974 18.5834C3.9974 19.3056 4.08073 20.014 4.2474 20.7084C4.41406 21.4029 4.66406 22.0834 4.9974 22.7501L2.4974 25.2501ZM14.0391 36.8334L7.3724 30.1667L14.0391 23.5001L16.3724 25.8334L13.7057 28.5001H13.9974C16.7752 28.5001 19.1363 27.5209 21.0807 25.5626C23.0252 23.6042 23.9974 21.2223 23.9974 18.4167C23.9974 17.6945 23.9141 16.9862 23.7474 16.2917C23.5807 15.5973 23.3307 14.9167 22.9974 14.2501L25.4974 11.7501C26.1085 12.8056 26.5668 13.889 26.8724 15.0001C27.178 16.1112 27.3307 17.2501 27.3307 18.4167C27.3307 22.139 26.0391 25.3056 23.4557 27.9167C20.8724 30.5279 17.7196 31.8334 13.9974 31.8334H13.7057L16.3724 34.5001L14.0391 36.8334Z" fill="#A7A0F8"/>
</svg>
