<svg width="34" height="27" viewBox="0 0 34 27" fill="none" xmlns="http://www.w3.org/2000/svg">
<path d="M30.3359 26.8334H22.0026C22.0026 26.2779 21.9818 25.7223 21.9401 25.1667C21.8984 24.6112 21.8359 24.0556 21.7526 23.5001H30.3359V3.50008H3.66927V5.41675C3.11372 5.33342 2.55816 5.27092 2.0026 5.22925C1.44705 5.18758 0.891493 5.16675 0.335938 5.16675V3.50008C0.335938 2.58341 0.662326 1.79869 1.3151 1.14591C1.96788 0.493137 2.7526 0.166748 3.66927 0.166748H30.3359C31.2526 0.166748 32.0373 0.493137 32.6901 1.14591C33.3429 1.79869 33.6693 2.58341 33.6693 3.50008V23.5001C33.6693 24.4167 33.3429 25.2015 32.6901 25.8542C32.0373 26.507 31.2526 26.8334 30.3359 26.8334ZM0.335938 26.8334V21.8334C1.72483 21.8334 2.90538 22.3195 3.8776 23.2917C4.84983 24.264 5.33594 25.4445 5.33594 26.8334H0.335938ZM8.66927 26.8334C8.66927 24.5279 7.85677 22.5626 6.23177 20.9376C4.60677 19.3126 2.64149 18.5001 0.335938 18.5001V15.1667C3.58594 15.1667 6.34288 16.2987 8.60677 18.5626C10.8707 20.8265 12.0026 23.5834 12.0026 26.8334H8.66927ZM15.3359 26.8334C15.3359 24.7501 14.9401 22.7987 14.1484 20.9792C13.3568 19.1598 12.2873 17.5765 10.9401 16.2292C9.59288 14.882 8.00955 13.8126 6.1901 13.0209C4.37066 12.2292 2.41927 11.8334 0.335938 11.8334V8.50008C2.86372 8.50008 5.23872 8.97925 7.46094 9.93758C9.68316 10.8959 11.6276 12.2084 13.2943 13.8751C14.9609 15.5417 16.2734 17.4862 17.2318 19.7084C18.1901 21.9306 18.6693 24.3056 18.6693 26.8334H15.3359Z" fill="#A7A0F8"/>
</svg>
