<svg width="38" height="27" viewBox="0 0 38 27" fill="none" xmlns="http://www.w3.org/2000/svg">
<path d="M0.664062 26.8334V22.1667C0.664062 21.2223 0.907118 20.3542 1.39323 19.5626C1.87934 18.7709 2.52517 18.1667 3.33073 17.7501C5.05295 16.889 6.80295 16.2431 8.58073 15.8126C10.3585 15.382 12.1641 15.1667 13.9974 15.1667C15.8307 15.1667 17.6363 15.382 19.4141 15.8126C21.1918 16.2431 22.9418 16.889 24.6641 17.7501C25.4696 18.1667 26.1155 18.7709 26.6016 19.5626C27.0877 20.3542 27.3307 21.2223 27.3307 22.1667V26.8334H0.664062ZM30.6641 26.8334V21.8334C30.6641 20.6112 30.3238 19.4376 29.6432 18.3126C28.9627 17.1876 27.9974 16.2223 26.7474 15.4167C28.1641 15.5834 29.4974 15.8681 30.7474 16.2709C31.9974 16.6737 33.1641 17.1667 34.2474 17.7501C35.2474 18.3056 36.0113 18.9237 36.5391 19.6042C37.0668 20.2848 37.3307 21.0279 37.3307 21.8334V26.8334H30.6641ZM13.9974 13.5001C12.1641 13.5001 10.5946 12.8473 9.28906 11.5417C7.98351 10.2362 7.33073 8.66675 7.33073 6.83342C7.33073 5.00008 7.98351 3.43064 9.28906 2.12508C10.5946 0.819526 12.1641 0.166748 13.9974 0.166748C15.8307 0.166748 17.4002 0.819526 18.7057 2.12508C20.0113 3.43064 20.6641 5.00008 20.6641 6.83342C20.6641 8.66675 20.0113 10.2362 18.7057 11.5417C17.4002 12.8473 15.8307 13.5001 13.9974 13.5001ZM30.6641 6.83342C30.6641 8.66675 30.0113 10.2362 28.7057 11.5417C27.4002 12.8473 25.8307 13.5001 23.9974 13.5001C23.6918 13.5001 23.303 13.4654 22.8307 13.3959C22.3585 13.3265 21.9696 13.2501 21.6641 13.1667C22.4141 12.2779 22.9905 11.2917 23.3932 10.2084C23.796 9.12508 23.9974 8.00008 23.9974 6.83342C23.9974 5.66675 23.796 4.54175 23.3932 3.45841C22.9905 2.37508 22.4141 1.38897 21.6641 0.500081C22.053 0.361193 22.4418 0.270915 22.8307 0.229248C23.2196 0.187581 23.6085 0.166748 23.9974 0.166748C25.8307 0.166748 27.4002 0.819526 28.7057 2.12508C30.0113 3.43064 30.6641 5.00008 30.6641 6.83342ZM3.9974 23.5001H23.9974V22.1667C23.9974 21.8612 23.921 21.5834 23.7682 21.3334C23.6155 21.0834 23.4141 20.889 23.1641 20.7501C21.6641 20.0001 20.1502 19.4376 18.6224 19.0626C17.0946 18.6876 15.553 18.5001 13.9974 18.5001C12.4418 18.5001 10.9002 18.6876 9.3724 19.0626C7.84462 19.4376 6.33073 20.0001 4.83073 20.7501C4.58073 20.889 4.37934 21.0834 4.22656 21.3334C4.07378 21.5834 3.9974 21.8612 3.9974 22.1667V23.5001ZM13.9974 10.1667C14.9141 10.1667 15.6988 9.84036 16.3516 9.18758C17.0043 8.5348 17.3307 7.75008 17.3307 6.83342C17.3307 5.91675 17.0043 5.13203 16.3516 4.47925C15.6988 3.82647 14.9141 3.50008 13.9974 3.50008C13.0807 3.50008 12.296 3.82647 11.6432 4.47925C10.9905 5.13203 10.6641 5.91675 10.6641 6.83342C10.6641 7.75008 10.9905 8.5348 11.6432 9.18758C12.296 9.84036 13.0807 10.1667 13.9974 10.1667Z" fill="#A7A0F8"/>
</svg>
