<svg width="36" height="40" viewBox="0 0 36 40" fill="none" xmlns="http://www.w3.org/2000/svg">
<path d="M14 6.07154L14.0001 5.01285C14.1771 4.88457 14.3712 4.77499 14.6219 4.67399C15.1816 4.44848 16.17 4.21429 18.0001 4.21429C19.8301 4.21429 20.8185 4.4485 21.3782 4.67401C21.6289 4.77499 21.823 4.88457 22 5.01283V6.07143H26V3.46775L25.4436 2.92891C24.9586 2.45929 24.2351 1.77619 22.9704 1.26664C21.7473 0.773842 20.17 0.5 18.0001 0.5C15.8302 0.5 14.2529 0.773821 13.0298 1.26661C11.7651 1.77614 11.0416 2.45924 10.5565 2.92895L10.0002 3.46773L10 6.07132L14 6.07154Z" fill="#A7A0F8"/>
<path fill-rule="evenodd" clip-rule="evenodd" d="M11.5174 9.78571H24.4826C26.0925 9.78569 27.4213 9.78567 28.5037 9.86779C29.6278 9.95308 30.6613 10.1361 31.6319 10.5954C33.1372 11.3076 34.3611 12.444 35.1281 13.8418C35.6226 14.7431 35.8198 15.7027 35.9116 16.7466C36 17.7517 36 18.9855 36 20.4804V28.8053C36 30.3002 36 31.534 35.9116 32.5391C35.8198 33.583 35.6226 34.5426 35.1281 35.4439C34.3611 36.8417 33.1372 37.9781 31.6319 38.6903C30.6613 39.1496 29.6278 39.3326 28.5037 39.4179C27.4213 39.5 26.0927 39.5 24.4829 39.5H11.5175C9.90765 39.5 8.57867 39.5 7.49635 39.4179C6.37216 39.3326 5.33875 39.1496 4.36808 38.6903C2.86278 37.9781 1.63894 36.8417 0.871951 35.4439C0.377369 34.5426 0.180241 33.583 0.0883906 32.5391C-4.28483e-05 31.534 -2.31188e-05 30.3002 7.82431e-07 28.8053V20.4804C-2.31188e-05 18.9855 -4.28483e-05 17.7517 0.0883906 16.7466C0.180241 15.7027 0.377369 14.7431 0.871951 13.8418C1.63894 12.444 2.86278 11.3076 4.36808 10.5954C5.33875 10.1361 6.37216 9.95308 7.49635 9.86779C8.57874 9.78567 9.90748 9.78569 11.5174 9.78571ZM18.0011 32.0714C15.6195 32.0726 13.1868 31.5051 10.8001 29.8429L13.2001 26.8714C14.8133 27.9949 16.3772 28.358 17.999 28.3571C19.6207 28.3563 21.1881 27.994 22.8 26.8714L25.2 29.8429C22.812 31.506 20.3759 32.0702 18.0011 32.0714ZM11 19.0714C9.34315 19.0714 8 20.3186 8 21.8571C8 23.3956 9.34315 24.6429 11 24.6429C12.6569 24.6429 14 23.3956 14 21.8571C14 20.3186 12.6569 19.0714 11 19.0714ZM22 21.8571C22 20.3186 23.3431 19.0714 25 19.0714C26.6569 19.0714 28 20.3186 28 21.8571C28 23.3956 26.6569 24.6429 25 24.6429C23.3431 24.6429 22 23.3956 22 21.8571Z" fill="#A7A0F8"/>
</svg>
