<svg width="48" height="49" viewBox="0 0 48 49" fill="none" xmlns="http://www.w3.org/2000/svg">
<rect y="0.5" width="48" height="48" rx="8" fill="#A7A0F8"/>
<path d="M21.3333 14.5001L21.3334 13.74C21.4514 13.6479 21.5808 13.5692 21.7479 13.4967C22.1211 13.3348 22.78 13.1667 24.0001 13.1667C25.2201 13.1667 25.879 13.3348 26.2522 13.4967C26.4193 13.5692 26.5487 13.6479 26.6667 13.74V14.5H29.3333V12.6307L28.9624 12.2438C28.6391 11.9067 28.1567 11.4162 27.3136 11.0504C26.4982 10.6966 25.4466 10.5 24.0001 10.5C22.5535 10.5 21.502 10.6966 20.6865 11.0504C19.8434 11.4162 19.361 11.9066 19.0377 12.2439L18.6668 12.6307L18.6667 14.4999L21.3333 14.5001Z" fill="#FAFAFA"/>
<path fill-rule="evenodd" clip-rule="evenodd" d="M19.6783 17.1667H28.3217C29.395 17.1666 30.2808 17.1666 31.0024 17.2256C31.7519 17.2868 32.4408 17.4182 33.0879 17.748C34.0915 18.2593 34.9074 19.0752 35.4187 20.0787C35.7484 20.7258 35.8798 21.4148 35.9411 22.1642C36 22.8858 36 23.7716 36 24.8449V30.8218C36 31.895 36 32.7808 35.9411 33.5024C35.8798 34.2519 35.7484 34.9408 35.4187 35.5879C34.9074 36.5915 34.0915 37.4074 33.0879 37.9187C32.4408 38.2484 31.7519 38.3798 31.0024 38.4411C30.2809 38.5 29.3951 38.5 28.3219 38.5H19.6783C18.6051 38.5 17.7191 38.5 16.9976 38.4411C16.2481 38.3798 15.5592 38.2484 14.9121 37.9187C13.9085 37.4074 13.0926 36.5915 12.5813 35.5879C12.2516 34.9408 12.1202 34.2519 12.0589 33.5024C12 32.7809 12 31.895 12 30.8218V24.8449C12 23.7717 12 22.8858 12.0589 22.1642C12.1202 21.4148 12.2516 20.7258 12.5813 20.0787C13.0926 19.0752 13.9085 18.2593 14.9121 17.748C15.5592 17.4182 16.2481 17.2868 16.9976 17.2256C17.7192 17.1666 18.605 17.1666 19.6783 17.1667ZM24.0008 33.1667C22.413 33.1675 20.7912 32.76 19.2 31.5667L20.8 29.4333C21.8755 30.24 22.9181 30.5006 23.9993 30.5C25.0805 30.4994 26.1254 30.2393 27.2 29.4333L28.8 31.5667C27.208 32.7607 25.5839 33.1658 24.0008 33.1667ZM19.3333 23.8333C18.2288 23.8333 17.3333 24.7288 17.3333 25.8333C17.3333 26.9379 18.2288 27.8333 19.3333 27.8333C20.4379 27.8333 21.3333 26.9379 21.3333 25.8333C21.3333 24.7288 20.4379 23.8333 19.3333 23.8333ZM26.6667 25.8333C26.6667 24.7288 27.5621 23.8333 28.6667 23.8333C29.7712 23.8333 30.6667 24.7288 30.6667 25.8333C30.6667 26.9379 29.7712 27.8333 28.6667 27.8333C27.5621 27.8333 26.6667 26.9379 26.6667 25.8333Z" fill="#FAFAFA"/>
</svg>
