<svg width="38" height="27" viewBox="0 0 38 27" fill="none" xmlns="http://www.w3.org/2000/svg">
<path d="M13.9583 26.8308C13.4306 26.8308 12.9583 26.6781 12.5417 26.3725C12.125 26.067 11.8194 25.6781 11.625 25.2058L7.79167 15.1642H0.625V11.8308H10.125L13.9583 21.9975L21.625 1.78918C21.8194 1.31696 22.125 0.928073 22.5417 0.622518C22.9583 0.316962 23.4306 0.164185 23.9583 0.164185C24.4861 0.164185 24.9583 0.316962 25.375 0.622518C25.7917 0.928073 26.0972 1.31696 26.2917 1.78918L30.125 11.8308H37.2917V15.1642H27.7917L23.9583 4.99752L16.2917 25.2058C16.0972 25.6781 15.7917 26.067 15.375 26.3725C14.9583 26.6781 14.4861 26.8308 13.9583 26.8308Z" fill="#A7A0F8"/>
</svg>
