<svg width="34" height="27" viewBox="0 0 34 27" fill="none" xmlns="http://www.w3.org/2000/svg">
<path d="M3.66927 26.8333C2.7526 26.8333 1.96788 26.5069 1.3151 25.8541C0.662326 25.2014 0.335938 24.4166 0.335938 23.5V3.49996C0.335938 2.58329 0.662326 1.79857 1.3151 1.14579C1.96788 0.493015 2.7526 0.166626 3.66927 0.166626H30.3359C31.2526 0.166626 32.0373 0.493015 32.6901 1.14579C33.3429 1.79857 33.6693 2.58329 33.6693 3.49996V23.5C33.6693 24.4166 33.3429 25.2014 32.6901 25.8541C32.0373 26.5069 31.2526 26.8333 30.3359 26.8333H3.66927ZM3.66927 23.5H21.1693V17.6666H3.66927V23.5ZM24.5026 23.5H30.3359V8.49996H24.5026V23.5ZM3.66927 14.3333H21.1693V8.49996H3.66927V14.3333Z" fill="#A7A0F8"/>
</svg>
